<mxfile host="Electron" agent="Mozilla/5.0 (Windows NT 10.0; Win64; x64) AppleWebKit/537.36 (KHTML, like Gecko) draw.io/27.0.9 Chrome/134.0.6998.205 Electron/35.4.0 Safari/537.36" version="27.0.9">
  <diagram name="PÃ¡gina-1" id="_yVZuQ4K9o2TGJIuYlfn">
    <mxGraphModel dx="5467" dy="6520" grid="1" gridSize="10" guides="1" tooltips="1" connect="1" arrows="1" fold="1" page="1" pageScale="1" pageWidth="827" pageHeight="1169" math="0" shadow="0">
      <root>
        <mxCell id="0" />
        <mxCell id="1" parent="0" />
        <mxCell id="7c4dE1HReEAFrCPjgV6M-1" value="usuario" style="shape=umlLifeline;perimeter=lifelinePerimeter;whiteSpace=wrap;html=1;container=1;dropTarget=0;collapsible=0;recursiveResize=0;outlineConnect=0;portConstraint=eastwest;newEdgeStyle={&quot;curved&quot;:0,&quot;rounded&quot;:0};participant=umlActor;size=30;" vertex="1" parent="1">
          <mxGeometry x="100" y="160" width="20" height="580" as="geometry" />
        </mxCell>
        <mxCell id="7c4dE1HReEAFrCPjgV6M-2" value="Vista (index.html)" style="shape=umlLifeline;perimeter=lifelinePerimeter;whiteSpace=wrap;html=1;container=1;dropTarget=0;collapsible=0;recursiveResize=0;outlineConnect=0;portConstraint=eastwest;newEdgeStyle={&quot;curved&quot;:0,&quot;rounded&quot;:0};" vertex="1" parent="1">
          <mxGeometry x="180" y="160" width="100" height="580" as="geometry" />
        </mxCell>
        <mxCell id="7c4dE1HReEAFrCPjgV6M-79" value="" style="html=1;points=[[0,0,0,0,5],[0,1,0,0,-5],[1,0,0,0,5],[1,1,0,0,-5]];perimeter=orthogonalPerimeter;outlineConnect=0;targetShapes=umlLifeline;portConstraint=eastwest;newEdgeStyle={&quot;curved&quot;:0,&quot;rounded&quot;:0};" vertex="1" parent="7c4dE1HReEAFrCPjgV6M-2">
          <mxGeometry x="45" y="50" width="10" height="440" as="geometry" />
        </mxCell>
        <mxCell id="7c4dE1HReEAFrCPjgV6M-3" value="Script de GUI" style="shape=umlLifeline;perimeter=lifelinePerimeter;whiteSpace=wrap;html=1;container=1;dropTarget=0;collapsible=0;recursiveResize=0;outlineConnect=0;portConstraint=eastwest;newEdgeStyle={&quot;curved&quot;:0,&quot;rounded&quot;:0};" vertex="1" parent="1">
          <mxGeometry x="310" y="160" width="100" height="600" as="geometry" />
        </mxCell>
        <mxCell id="7c4dE1HReEAFrCPjgV6M-80" value="" style="html=1;points=[[0,0,0,0,5],[0,1,0,0,-5],[1,0,0,0,5],[1,1,0,0,-5]];perimeter=orthogonalPerimeter;outlineConnect=0;targetShapes=umlLifeline;portConstraint=eastwest;newEdgeStyle={&quot;curved&quot;:0,&quot;rounded&quot;:0};" vertex="1" parent="7c4dE1HReEAFrCPjgV6M-3">
          <mxGeometry x="45" y="60" width="10" height="440" as="geometry" />
        </mxCell>
        <mxCell id="7c4dE1HReEAFrCPjgV6M-4" value="Servidor Express (app.js)&lt;span style=&quot;color: rgba(0, 0, 0, 0); font-family: monospace; font-size: 0px; text-align: start; text-wrap-mode: nowrap;&quot;&gt;%3CmxGraphModel%3E%3Croot%3E%3CmxCell%20id%3D%220%22%2F%3E%3CmxCell%20id%3D%221%22%20parent%3D%220%22%2F%3E%3CmxCell%20id%3D%222%22%20value%3D%22Script%20de%20GUI%22%20style%3D%22shape%3DumlLifeline%3Bperimeter%3DlifelinePerimeter%3BwhiteSpace%3Dwrap%3Bhtml%3D1%3Bcontainer%3D1%3BdropTarget%3D0%3Bcollapsible%3D0%3BrecursiveResize%3D0%3BoutlineConnect%3D0%3BportConstraint%3Deastwest%3BnewEdgeStyle%3D%7B%26quot%3Bcurved%26quot%3B%3A0%2C%26quot%3Brounded%26quot%3B%3A0%7D%3B%22%20vertex%3D%221%22%20parent%3D%221%22%3E%3CmxGeometry%20x%3D%22310%22%20y%3D%22160%22%20width%3D%22100%22%20height%3D%22300%22%20as%3D%22geometry%22%2F%3E%3C%2FmxCell%3E%3C%2Froot%3E%3C%2FmxGraphModel%3E&lt;/span&gt;" style="shape=umlLifeline;perimeter=lifelinePerimeter;whiteSpace=wrap;html=1;container=1;dropTarget=0;collapsible=0;recursiveResize=0;outlineConnect=0;portConstraint=eastwest;newEdgeStyle={&quot;curved&quot;:0,&quot;rounded&quot;:0};" vertex="1" parent="1">
          <mxGeometry x="440" y="160" width="100" height="590" as="geometry" />
        </mxCell>
        <mxCell id="7c4dE1HReEAFrCPjgV6M-81" value="" style="html=1;points=[[0,0,0,0,5],[0,1,0,0,-5],[1,0,0,0,5],[1,1,0,0,-5]];perimeter=orthogonalPerimeter;outlineConnect=0;targetShapes=umlLifeline;portConstraint=eastwest;newEdgeStyle={&quot;curved&quot;:0,&quot;rounded&quot;:0};" vertex="1" parent="7c4dE1HReEAFrCPjgV6M-4">
          <mxGeometry x="45" y="100" width="10" height="370" as="geometry" />
        </mxCell>
        <mxCell id="7c4dE1HReEAFrCPjgV6M-5" value="Router" style="shape=umlLifeline;perimeter=lifelinePerimeter;whiteSpace=wrap;html=1;container=1;dropTarget=0;collapsible=0;recursiveResize=0;outlineConnect=0;portConstraint=eastwest;newEdgeStyle={&quot;curved&quot;:0,&quot;rounded&quot;:0};" vertex="1" parent="1">
          <mxGeometry x="570" y="160" width="100" height="600" as="geometry" />
        </mxCell>
        <mxCell id="7c4dE1HReEAFrCPjgV6M-6" value="Controlador" style="shape=umlLifeline;perimeter=lifelinePerimeter;whiteSpace=wrap;html=1;container=1;dropTarget=0;collapsible=0;recursiveResize=0;outlineConnect=0;portConstraint=eastwest;newEdgeStyle={&quot;curved&quot;:0,&quot;rounded&quot;:0};" vertex="1" parent="1">
          <mxGeometry x="700" y="160" width="100" height="600" as="geometry" />
        </mxCell>
        <mxCell id="7c4dE1HReEAFrCPjgV6M-84" value="" style="html=1;points=[[0,0,0,0,5],[0,1,0,0,-5],[1,0,0,0,5],[1,1,0,0,-5]];perimeter=orthogonalPerimeter;outlineConnect=0;targetShapes=umlLifeline;portConstraint=eastwest;newEdgeStyle={&quot;curved&quot;:0,&quot;rounded&quot;:0};" vertex="1" parent="7c4dE1HReEAFrCPjgV6M-6">
          <mxGeometry x="45" y="180" width="10" height="210" as="geometry" />
        </mxCell>
        <mxCell id="7c4dE1HReEAFrCPjgV6M-7" value="Servicio" style="shape=umlLifeline;perimeter=lifelinePerimeter;whiteSpace=wrap;html=1;container=1;dropTarget=0;collapsible=0;recursiveResize=0;outlineConnect=0;portConstraint=eastwest;newEdgeStyle={&quot;curved&quot;:0,&quot;rounded&quot;:0};" vertex="1" parent="1">
          <mxGeometry x="827" y="160" width="100" height="600" as="geometry" />
        </mxCell>
        <mxCell id="7c4dE1HReEAFrCPjgV6M-85" value="" style="html=1;points=[[0,0,0,0,5],[0,1,0,0,-5],[1,0,0,0,5],[1,1,0,0,-5]];perimeter=orthogonalPerimeter;outlineConnect=0;targetShapes=umlLifeline;portConstraint=eastwest;newEdgeStyle={&quot;curved&quot;:0,&quot;rounded&quot;:0};" vertex="1" parent="7c4dE1HReEAFrCPjgV6M-7">
          <mxGeometry x="45" y="200" width="10" height="170" as="geometry" />
        </mxCell>
        <mxCell id="7c4dE1HReEAFrCPjgV6M-8" value="API" style="shape=umlLifeline;perimeter=lifelinePerimeter;whiteSpace=wrap;html=1;container=1;dropTarget=0;collapsible=0;recursiveResize=0;outlineConnect=0;portConstraint=eastwest;newEdgeStyle={&quot;curved&quot;:0,&quot;rounded&quot;:0};" vertex="1" parent="1">
          <mxGeometry x="960" y="160" width="100" height="590" as="geometry" />
        </mxCell>
        <mxCell id="7c4dE1HReEAFrCPjgV6M-86" value="" style="html=1;points=[[0,0,0,0,5],[0,1,0,0,-5],[1,0,0,0,5],[1,1,0,0,-5]];perimeter=orthogonalPerimeter;outlineConnect=0;targetShapes=umlLifeline;portConstraint=eastwest;newEdgeStyle={&quot;curved&quot;:0,&quot;rounded&quot;:0};" vertex="1" parent="7c4dE1HReEAFrCPjgV6M-8">
          <mxGeometry x="45" y="230" width="10" height="90" as="geometry" />
        </mxCell>
        <mxCell id="7c4dE1HReEAFrCPjgV6M-9" value="&quot;Actualizar&quot;" style="html=1;verticalAlign=bottom;endArrow=block;curved=0;rounded=0;" edge="1" parent="1">
          <mxGeometry x="-0.0047" width="80" relative="1" as="geometry">
            <mxPoint x="115" y="230" as="sourcePoint" />
            <mxPoint x="229.5" y="230" as="targetPoint" />
            <Array as="points" />
            <mxPoint as="offset" />
          </mxGeometry>
        </mxCell>
        <mxCell id="7c4dE1HReEAFrCPjgV6M-10" value="onActualizarClick()" style="html=1;verticalAlign=bottom;endArrow=block;curved=0;rounded=0;" edge="1" parent="1">
          <mxGeometry width="80" relative="1" as="geometry">
            <mxPoint x="230" y="260" as="sourcePoint" />
            <mxPoint x="360" y="260" as="targetPoint" />
          </mxGeometry>
        </mxCell>
        <mxCell id="7c4dE1HReEAFrCPjgV6M-11" value="fetch/clima/actual" style="html=1;verticalAlign=bottom;endArrow=block;curved=0;rounded=0;" edge="1" parent="1">
          <mxGeometry width="80" relative="1" as="geometry">
            <mxPoint x="360" y="290" as="sourcePoint" />
            <mxPoint x="490" y="290" as="targetPoint" />
          </mxGeometry>
        </mxCell>
        <mxCell id="7c4dE1HReEAFrCPjgV6M-12" value="delega ruta" style="html=1;verticalAlign=bottom;endArrow=block;curved=0;rounded=0;" edge="1" parent="1">
          <mxGeometry width="80" relative="1" as="geometry">
            <mxPoint x="490" y="320" as="sourcePoint" />
            <mxPoint x="620" y="320" as="targetPoint" />
          </mxGeometry>
        </mxCell>
        <mxCell id="7c4dE1HReEAFrCPjgV6M-13" value="getActual()" style="html=1;verticalAlign=bottom;endArrow=block;curved=0;rounded=0;" edge="1" parent="1" source="7c4dE1HReEAFrCPjgV6M-82">
          <mxGeometry x="0.0085" width="80" relative="1" as="geometry">
            <mxPoint x="620" y="350" as="sourcePoint" />
            <mxPoint x="750" y="350" as="targetPoint" />
            <mxPoint as="offset" />
          </mxGeometry>
        </mxCell>
        <mxCell id="7c4dE1HReEAFrCPjgV6M-14" value="getActual()" style="html=1;verticalAlign=bottom;endArrow=block;curved=0;rounded=0;" edge="1" parent="1">
          <mxGeometry x="0.0085" width="80" relative="1" as="geometry">
            <mxPoint x="750" y="380" as="sourcePoint" />
            <mxPoint x="880" y="380" as="targetPoint" />
            <mxPoint as="offset" />
          </mxGeometry>
        </mxCell>
        <mxCell id="7c4dE1HReEAFrCPjgV6M-15" value="readTemp(), readHumidity()" style="html=1;verticalAlign=bottom;endArrow=block;curved=0;rounded=0;" edge="1" parent="1">
          <mxGeometry x="0.0085" width="80" relative="1" as="geometry">
            <mxPoint x="880" y="410" as="sourcePoint" />
            <mxPoint x="1010" y="410" as="targetPoint" />
            <mxPoint as="offset" />
          </mxGeometry>
        </mxCell>
        <mxCell id="7c4dE1HReEAFrCPjgV6M-16" value="valores actuales" style="html=1;verticalAlign=bottom;endArrow=open;dashed=1;endSize=8;curved=0;rounded=0;" edge="1" parent="1" target="7c4dE1HReEAFrCPjgV6M-7">
          <mxGeometry relative="1" as="geometry">
            <mxPoint x="1010" y="459.23" as="sourcePoint" />
            <mxPoint x="930" y="459.23" as="targetPoint" />
          </mxGeometry>
        </mxCell>
        <mxCell id="7c4dE1HReEAFrCPjgV6M-17" value="valores actuales" style="html=1;verticalAlign=bottom;endArrow=open;dashed=1;endSize=8;curved=0;rounded=0;" edge="1" parent="1" source="7c4dE1HReEAFrCPjgV6M-7">
          <mxGeometry relative="1" as="geometry">
            <mxPoint x="884" y="500.23" as="sourcePoint" />
            <mxPoint x="750" y="500" as="targetPoint" />
          </mxGeometry>
        </mxCell>
        <mxCell id="7c4dE1HReEAFrCPjgV6M-18" value="valores actuales" style="html=1;verticalAlign=bottom;endArrow=open;dashed=1;endSize=8;curved=0;rounded=0;" edge="1" parent="1" target="7c4dE1HReEAFrCPjgV6M-82">
          <mxGeometry relative="1" as="geometry">
            <mxPoint x="747" y="530" as="sourcePoint" />
            <mxPoint x="620" y="530" as="targetPoint" />
          </mxGeometry>
        </mxCell>
        <mxCell id="7c4dE1HReEAFrCPjgV6M-19" value="valores actuales" style="html=1;verticalAlign=bottom;endArrow=open;dashed=1;endSize=8;curved=0;rounded=0;" edge="1" parent="1">
          <mxGeometry relative="1" as="geometry">
            <mxPoint x="617" y="560" as="sourcePoint" />
            <mxPoint x="490" y="560" as="targetPoint" />
          </mxGeometry>
        </mxCell>
        <mxCell id="7c4dE1HReEAFrCPjgV6M-20" value="respuesta JSON" style="html=1;verticalAlign=bottom;endArrow=open;dashed=1;endSize=8;curved=0;rounded=0;" edge="1" parent="1">
          <mxGeometry relative="1" as="geometry">
            <mxPoint x="487" y="600" as="sourcePoint" />
            <mxPoint x="360" y="600" as="targetPoint" />
          </mxGeometry>
        </mxCell>
        <mxCell id="7c4dE1HReEAFrCPjgV6M-21" value="Actualiza UI" style="html=1;verticalAlign=bottom;endArrow=open;dashed=1;endSize=8;curved=0;rounded=0;" edge="1" parent="1">
          <mxGeometry relative="1" as="geometry">
            <mxPoint x="357" y="630" as="sourcePoint" />
            <mxPoint x="230" y="630" as="targetPoint" />
          </mxGeometry>
        </mxCell>
        <mxCell id="7c4dE1HReEAFrCPjgV6M-23" value="usuario" style="shape=umlLifeline;perimeter=lifelinePerimeter;whiteSpace=wrap;html=1;container=1;dropTarget=0;collapsible=0;recursiveResize=0;outlineConnect=0;portConstraint=eastwest;newEdgeStyle={&quot;curved&quot;:0,&quot;rounded&quot;:0};participant=umlActor;size=30;" vertex="1" parent="1">
          <mxGeometry x="-1" y="1140" width="20" height="580" as="geometry" />
        </mxCell>
        <mxCell id="7c4dE1HReEAFrCPjgV6M-24" value="Vista (index.html)" style="shape=umlLifeline;perimeter=lifelinePerimeter;whiteSpace=wrap;html=1;container=1;dropTarget=0;collapsible=0;recursiveResize=0;outlineConnect=0;portConstraint=eastwest;newEdgeStyle={&quot;curved&quot;:0,&quot;rounded&quot;:0};" vertex="1" parent="1">
          <mxGeometry x="123" y="1140" width="100" height="630" as="geometry" />
        </mxCell>
        <mxCell id="7c4dE1HReEAFrCPjgV6M-87" value="" style="html=1;points=[[0,0,0,0,5],[0,1,0,0,-5],[1,0,0,0,5],[1,1,0,0,-5]];perimeter=orthogonalPerimeter;outlineConnect=0;targetShapes=umlLifeline;portConstraint=eastwest;newEdgeStyle={&quot;curved&quot;:0,&quot;rounded&quot;:0};" vertex="1" parent="7c4dE1HReEAFrCPjgV6M-24">
          <mxGeometry x="45" y="60" width="10" height="510" as="geometry" />
        </mxCell>
        <mxCell id="7c4dE1HReEAFrCPjgV6M-25" value="Script de GUI" style="shape=umlLifeline;perimeter=lifelinePerimeter;whiteSpace=wrap;html=1;container=1;dropTarget=0;collapsible=0;recursiveResize=0;outlineConnect=0;portConstraint=eastwest;newEdgeStyle={&quot;curved&quot;:0,&quot;rounded&quot;:0};" vertex="1" parent="1">
          <mxGeometry x="296" y="1140" width="100" height="600" as="geometry" />
        </mxCell>
        <mxCell id="7c4dE1HReEAFrCPjgV6M-88" value="" style="html=1;points=[[0,0,0,0,5],[0,1,0,0,-5],[1,0,0,0,5],[1,1,0,0,-5]];perimeter=orthogonalPerimeter;outlineConnect=0;targetShapes=umlLifeline;portConstraint=eastwest;newEdgeStyle={&quot;curved&quot;:0,&quot;rounded&quot;:0};" vertex="1" parent="7c4dE1HReEAFrCPjgV6M-25">
          <mxGeometry x="45" y="90" width="10" height="480" as="geometry" />
        </mxCell>
        <mxCell id="7c4dE1HReEAFrCPjgV6M-26" value="Servidor Express (app.js)&lt;span style=&quot;color: rgba(0, 0, 0, 0); font-family: monospace; font-size: 0px; text-align: start; text-wrap-mode: nowrap;&quot;&gt;%3CmxGraphModel%3E%3Croot%3E%3CmxCell%20id%3D%220%22%2F%3E%3CmxCell%20id%3D%221%22%20parent%3D%220%22%2F%3E%3CmxCell%20id%3D%222%22%20value%3D%22Script%20de%20GUI%22%20style%3D%22shape%3DumlLifeline%3Bperimeter%3DlifelinePerimeter%3BwhiteSpace%3Dwrap%3Bhtml%3D1%3Bcontainer%3D1%3BdropTarget%3D0%3Bcollapsible%3D0%3BrecursiveResize%3D0%3BoutlineConnect%3D0%3BportConstraint%3Deastwest%3BnewEdgeStyle%3D%7B%26quot%3Bcurved%26quot%3B%3A0%2C%26quot%3Brounded%26quot%3B%3A0%7D%3B%22%20vertex%3D%221%22%20parent%3D%221%22%3E%3CmxGeometry%20x%3D%22310%22%20y%3D%22160%22%20width%3D%22100%22%20height%3D%22300%22%20as%3D%22geometry%22%2F%3E%3C%2FmxCell%3E%3C%2Froot%3E%3C%2FmxGraphModel%3E&lt;/span&gt;" style="shape=umlLifeline;perimeter=lifelinePerimeter;whiteSpace=wrap;html=1;container=1;dropTarget=0;collapsible=0;recursiveResize=0;outlineConnect=0;portConstraint=eastwest;newEdgeStyle={&quot;curved&quot;:0,&quot;rounded&quot;:0};" vertex="1" parent="1">
          <mxGeometry x="460" y="1140" width="100" height="590" as="geometry" />
        </mxCell>
        <mxCell id="7c4dE1HReEAFrCPjgV6M-89" value="" style="html=1;points=[[0,0,0,0,5],[0,1,0,0,-5],[1,0,0,0,5],[1,1,0,0,-5]];perimeter=orthogonalPerimeter;outlineConnect=0;targetShapes=umlLifeline;portConstraint=eastwest;newEdgeStyle={&quot;curved&quot;:0,&quot;rounded&quot;:0};" vertex="1" parent="7c4dE1HReEAFrCPjgV6M-26">
          <mxGeometry x="45" y="150" width="10" height="380" as="geometry" />
        </mxCell>
        <mxCell id="7c4dE1HReEAFrCPjgV6M-27" value="Router" style="shape=umlLifeline;perimeter=lifelinePerimeter;whiteSpace=wrap;html=1;container=1;dropTarget=0;collapsible=0;recursiveResize=0;outlineConnect=0;portConstraint=eastwest;newEdgeStyle={&quot;curved&quot;:0,&quot;rounded&quot;:0};" vertex="1" parent="1">
          <mxGeometry x="590" y="1140" width="100" height="600" as="geometry" />
        </mxCell>
        <mxCell id="7c4dE1HReEAFrCPjgV6M-90" value="" style="html=1;points=[[0,0,0,0,5],[0,1,0,0,-5],[1,0,0,0,5],[1,1,0,0,-5]];perimeter=orthogonalPerimeter;outlineConnect=0;targetShapes=umlLifeline;portConstraint=eastwest;newEdgeStyle={&quot;curved&quot;:0,&quot;rounded&quot;:0};" vertex="1" parent="7c4dE1HReEAFrCPjgV6M-27">
          <mxGeometry x="45" y="160" width="10" height="340" as="geometry" />
        </mxCell>
        <mxCell id="7c4dE1HReEAFrCPjgV6M-28" value="Controlador" style="shape=umlLifeline;perimeter=lifelinePerimeter;whiteSpace=wrap;html=1;container=1;dropTarget=0;collapsible=0;recursiveResize=0;outlineConnect=0;portConstraint=eastwest;newEdgeStyle={&quot;curved&quot;:0,&quot;rounded&quot;:0};" vertex="1" parent="1">
          <mxGeometry x="720" y="1140" width="100" height="600" as="geometry" />
        </mxCell>
        <mxCell id="7c4dE1HReEAFrCPjgV6M-91" value="" style="html=1;points=[[0,0,0,0,5],[0,1,0,0,-5],[1,0,0,0,5],[1,1,0,0,-5]];perimeter=orthogonalPerimeter;outlineConnect=0;targetShapes=umlLifeline;portConstraint=eastwest;newEdgeStyle={&quot;curved&quot;:0,&quot;rounded&quot;:0};" vertex="1" parent="7c4dE1HReEAFrCPjgV6M-28">
          <mxGeometry x="45" y="180" width="10" height="290" as="geometry" />
        </mxCell>
        <mxCell id="7c4dE1HReEAFrCPjgV6M-29" value="Servicio" style="shape=umlLifeline;perimeter=lifelinePerimeter;whiteSpace=wrap;html=1;container=1;dropTarget=0;collapsible=0;recursiveResize=0;outlineConnect=0;portConstraint=eastwest;newEdgeStyle={&quot;curved&quot;:0,&quot;rounded&quot;:0};" vertex="1" parent="1">
          <mxGeometry x="847" y="1140" width="100" height="600" as="geometry" />
        </mxCell>
        <mxCell id="7c4dE1HReEAFrCPjgV6M-92" value="" style="html=1;points=[[0,0,0,0,5],[0,1,0,0,-5],[1,0,0,0,5],[1,1,0,0,-5]];perimeter=orthogonalPerimeter;outlineConnect=0;targetShapes=umlLifeline;portConstraint=eastwest;newEdgeStyle={&quot;curved&quot;:0,&quot;rounded&quot;:0};" vertex="1" parent="7c4dE1HReEAFrCPjgV6M-29">
          <mxGeometry x="45" y="200" width="10" height="240" as="geometry" />
        </mxCell>
        <mxCell id="7c4dE1HReEAFrCPjgV6M-115" value="registrar()" style="html=1;verticalAlign=bottom;endArrow=block;curved=0;rounded=0;" edge="1" parent="7c4dE1HReEAFrCPjgV6M-29" source="7c4dE1HReEAFrCPjgV6M-92" target="7c4dE1HReEAFrCPjgV6M-92">
          <mxGeometry width="80" relative="1" as="geometry">
            <mxPoint x="43" y="260" as="sourcePoint" />
            <mxPoint x="123" y="260" as="targetPoint" />
          </mxGeometry>
        </mxCell>
        <mxCell id="7c4dE1HReEAFrCPjgV6M-30" value="API" style="shape=umlLifeline;perimeter=lifelinePerimeter;whiteSpace=wrap;html=1;container=1;dropTarget=0;collapsible=0;recursiveResize=0;outlineConnect=0;portConstraint=eastwest;newEdgeStyle={&quot;curved&quot;:0,&quot;rounded&quot;:0};" vertex="1" parent="1">
          <mxGeometry x="996" y="1140" width="100" height="590" as="geometry" />
        </mxCell>
        <mxCell id="7c4dE1HReEAFrCPjgV6M-93" value="" style="html=1;points=[[0,0,0,0,5],[0,1,0,0,-5],[1,0,0,0,5],[1,1,0,0,-5]];perimeter=orthogonalPerimeter;outlineConnect=0;targetShapes=umlLifeline;portConstraint=eastwest;newEdgeStyle={&quot;curved&quot;:0,&quot;rounded&quot;:0};" vertex="1" parent="7c4dE1HReEAFrCPjgV6M-30">
          <mxGeometry x="45" y="230" width="10" height="40" as="geometry" />
        </mxCell>
        <mxCell id="7c4dE1HReEAFrCPjgV6M-31" value="Ingresa valor y pulsa &quot;Aplicar&quot;" style="html=1;verticalAlign=bottom;endArrow=block;curved=0;rounded=0;" edge="1" parent="1">
          <mxGeometry x="-0.0004" width="80" relative="1" as="geometry">
            <mxPoint x="14" y="1220" as="sourcePoint" />
            <mxPoint x="170" y="1220" as="targetPoint" />
            <Array as="points" />
            <mxPoint as="offset" />
          </mxGeometry>
        </mxCell>
        <mxCell id="7c4dE1HReEAFrCPjgV6M-32" value="ajustarTemp()/ajustarHum()" style="html=1;verticalAlign=bottom;endArrow=block;curved=0;rounded=0;" edge="1" parent="1" target="7c4dE1HReEAFrCPjgV6M-25">
          <mxGeometry width="80" relative="1" as="geometry">
            <mxPoint x="170" y="1250" as="sourcePoint" />
            <mxPoint x="300" y="1250" as="targetPoint" />
          </mxGeometry>
        </mxCell>
        <mxCell id="7c4dE1HReEAFrCPjgV6M-33" value="fetch POST /clima/temperatura &lt;br&gt;o /clima/humedad" style="html=1;verticalAlign=bottom;endArrow=block;curved=0;rounded=0;" edge="1" parent="1" source="7c4dE1HReEAFrCPjgV6M-25">
          <mxGeometry width="80" relative="1" as="geometry">
            <mxPoint x="380" y="1308" as="sourcePoint" />
            <mxPoint x="510" y="1308" as="targetPoint" />
          </mxGeometry>
        </mxCell>
        <mxCell id="7c4dE1HReEAFrCPjgV6M-34" value="delega ruta" style="html=1;verticalAlign=bottom;endArrow=block;curved=0;rounded=0;" edge="1" parent="1">
          <mxGeometry width="80" relative="1" as="geometry">
            <mxPoint x="510" y="1330" as="sourcePoint" />
            <mxPoint x="640" y="1330" as="targetPoint" />
          </mxGeometry>
        </mxCell>
        <mxCell id="7c4dE1HReEAFrCPjgV6M-35" value="postTemperatura() / &lt;br&gt;postHumedad()" style="html=1;verticalAlign=bottom;endArrow=block;curved=0;rounded=0;" edge="1" parent="1" target="7c4dE1HReEAFrCPjgV6M-91">
          <mxGeometry x="0.0085" width="80" relative="1" as="geometry">
            <mxPoint x="640" y="1348" as="sourcePoint" />
            <mxPoint x="770" y="1348" as="targetPoint" />
            <mxPoint as="offset" />
          </mxGeometry>
        </mxCell>
        <mxCell id="7c4dE1HReEAFrCPjgV6M-36" value="ajustarTemperatura()/&lt;div&gt;ajustarHumedad&lt;/div&gt;" style="html=1;verticalAlign=bottom;endArrow=block;curved=0;rounded=0;" edge="1" parent="1" target="7c4dE1HReEAFrCPjgV6M-92">
          <mxGeometry x="0.004" width="80" relative="1" as="geometry">
            <mxPoint x="770" y="1360" as="sourcePoint" />
            <mxPoint x="900" y="1360" as="targetPoint" />
            <mxPoint as="offset" />
          </mxGeometry>
        </mxCell>
        <mxCell id="7c4dE1HReEAFrCPjgV6M-37" value="upTemp()/downTemp()/&lt;br&gt;upHumidity()/downHumidity()" style="html=1;verticalAlign=bottom;endArrow=block;curved=0;rounded=0;" edge="1" parent="1" target="7c4dE1HReEAFrCPjgV6M-30">
          <mxGeometry x="0.004" width="80" relative="1" as="geometry">
            <mxPoint x="900" y="1390" as="sourcePoint" />
            <mxPoint x="1030" y="1390" as="targetPoint" />
            <mxPoint as="offset" />
          </mxGeometry>
        </mxCell>
        <mxCell id="7c4dE1HReEAFrCPjgV6M-44" value="Modelo de persistencia (ClimaModel.js" style="shape=umlLifeline;perimeter=lifelinePerimeter;whiteSpace=wrap;html=1;container=1;dropTarget=0;collapsible=0;recursiveResize=0;outlineConnect=0;portConstraint=eastwest;newEdgeStyle={&quot;curved&quot;:0,&quot;rounded&quot;:0};" vertex="1" parent="1">
          <mxGeometry x="1120" y="1140" width="100" height="590" as="geometry" />
        </mxCell>
        <mxCell id="7c4dE1HReEAFrCPjgV6M-94" value="" style="html=1;points=[[0,0,0,0,5],[0,1,0,0,-5],[1,0,0,0,5],[1,1,0,0,-5]];perimeter=orthogonalPerimeter;outlineConnect=0;targetShapes=umlLifeline;portConstraint=eastwest;newEdgeStyle={&quot;curved&quot;:0,&quot;rounded&quot;:0};" vertex="1" parent="7c4dE1HReEAFrCPjgV6M-44">
          <mxGeometry x="45" y="290" width="10" height="100" as="geometry" />
        </mxCell>
        <mxCell id="7c4dE1HReEAFrCPjgV6M-46" value="guardarRegistro()" style="html=1;verticalAlign=bottom;endArrow=block;curved=0;rounded=0;" edge="1" parent="1">
          <mxGeometry x="0.004" width="80" relative="1" as="geometry">
            <mxPoint x="900" y="1476" as="sourcePoint" />
            <mxPoint x="1169.5000000000005" y="1476" as="targetPoint" />
            <mxPoint as="offset" />
          </mxGeometry>
        </mxCell>
        <mxCell id="7c4dE1HReEAFrCPjgV6M-47" value="confirmacion" style="html=1;verticalAlign=bottom;endArrow=open;dashed=1;endSize=8;curved=0;rounded=0;" edge="1" parent="1" target="7c4dE1HReEAFrCPjgV6M-29">
          <mxGeometry relative="1" as="geometry">
            <mxPoint x="1170" y="1510" as="sourcePoint" />
            <mxPoint x="1090" y="1510" as="targetPoint" />
          </mxGeometry>
        </mxCell>
        <mxCell id="7c4dE1HReEAFrCPjgV6M-48" value="confirmacion" style="html=1;verticalAlign=bottom;endArrow=open;dashed=1;endSize=8;curved=0;rounded=0;" edge="1" parent="1" target="7c4dE1HReEAFrCPjgV6M-91">
          <mxGeometry relative="1" as="geometry">
            <mxPoint x="894" y="1545" as="sourcePoint" />
            <mxPoint x="769.4473684210525" y="1545" as="targetPoint" />
          </mxGeometry>
        </mxCell>
        <mxCell id="7c4dE1HReEAFrCPjgV6M-49" value="confirmacion" style="html=1;verticalAlign=bottom;endArrow=open;dashed=1;endSize=8;curved=0;rounded=0;" edge="1" parent="1" target="7c4dE1HReEAFrCPjgV6M-90">
          <mxGeometry relative="1" as="geometry">
            <mxPoint x="764.5526315789475" y="1570" as="sourcePoint" />
            <mxPoint x="640" y="1570" as="targetPoint" />
          </mxGeometry>
        </mxCell>
        <mxCell id="7c4dE1HReEAFrCPjgV6M-50" value="confirmacion" style="html=1;verticalAlign=bottom;endArrow=open;dashed=1;endSize=8;curved=0;rounded=0;" edge="1" parent="1">
          <mxGeometry relative="1" as="geometry">
            <mxPoint x="634.5526315789475" y="1610" as="sourcePoint" />
            <mxPoint x="510" y="1610" as="targetPoint" />
          </mxGeometry>
        </mxCell>
        <mxCell id="7c4dE1HReEAFrCPjgV6M-51" value="respuesta JSON" style="html=1;verticalAlign=bottom;endArrow=open;dashed=1;endSize=8;curved=0;rounded=0;" edge="1" parent="1" target="7c4dE1HReEAFrCPjgV6M-25">
          <mxGeometry relative="1" as="geometry">
            <mxPoint x="514.5526315789475" y="1650" as="sourcePoint" />
            <mxPoint x="390" y="1650" as="targetPoint" />
          </mxGeometry>
        </mxCell>
        <mxCell id="7c4dE1HReEAFrCPjgV6M-52" value="Actualiza UI" style="html=1;verticalAlign=bottom;endArrow=open;dashed=1;endSize=8;curved=0;rounded=0;" edge="1" parent="1">
          <mxGeometry relative="1" as="geometry">
            <mxPoint x="339.5526315789475" y="1690" as="sourcePoint" />
            <mxPoint x="170" y="1690" as="targetPoint" />
          </mxGeometry>
        </mxCell>
        <mxCell id="7c4dE1HReEAFrCPjgV6M-55" value="Vista (index.html)" style="shape=umlLifeline;perimeter=lifelinePerimeter;whiteSpace=wrap;html=1;container=1;dropTarget=0;collapsible=0;recursiveResize=0;outlineConnect=0;portConstraint=eastwest;newEdgeStyle={&quot;curved&quot;:0,&quot;rounded&quot;:0};" vertex="1" parent="1">
          <mxGeometry x="123" y="2160" width="100" height="650" as="geometry" />
        </mxCell>
        <mxCell id="7c4dE1HReEAFrCPjgV6M-96" value="" style="html=1;points=[[0,0,0,0,5],[0,1,0,0,-5],[1,0,0,0,5],[1,1,0,0,-5]];perimeter=orthogonalPerimeter;outlineConnect=0;targetShapes=umlLifeline;portConstraint=eastwest;newEdgeStyle={&quot;curved&quot;:0,&quot;rounded&quot;:0};" vertex="1" parent="7c4dE1HReEAFrCPjgV6M-55">
          <mxGeometry x="45" y="70" width="10" height="50" as="geometry" />
        </mxCell>
        <mxCell id="7c4dE1HReEAFrCPjgV6M-98" value="" style="html=1;points=[[0,0,0,0,5],[0,1,0,0,-5],[1,0,0,0,5],[1,1,0,0,-5]];perimeter=orthogonalPerimeter;outlineConnect=0;targetShapes=umlLifeline;portConstraint=eastwest;newEdgeStyle={&quot;curved&quot;:0,&quot;rounded&quot;:0};" vertex="1" parent="7c4dE1HReEAFrCPjgV6M-55">
          <mxGeometry x="45" y="530" width="10" height="30" as="geometry" />
        </mxCell>
        <mxCell id="7c4dE1HReEAFrCPjgV6M-56" value="Script de GUI" style="shape=umlLifeline;perimeter=lifelinePerimeter;whiteSpace=wrap;html=1;container=1;dropTarget=0;collapsible=0;recursiveResize=0;outlineConnect=0;portConstraint=eastwest;newEdgeStyle={&quot;curved&quot;:0,&quot;rounded&quot;:0};" vertex="1" parent="1">
          <mxGeometry x="296" y="2160" width="100" height="650" as="geometry" />
        </mxCell>
        <mxCell id="7c4dE1HReEAFrCPjgV6M-97" value="" style="html=1;points=[[0,0,0,0,5],[0,1,0,0,-5],[1,0,0,0,5],[1,1,0,0,-5]];perimeter=orthogonalPerimeter;outlineConnect=0;targetShapes=umlLifeline;portConstraint=eastwest;newEdgeStyle={&quot;curved&quot;:0,&quot;rounded&quot;:0};" vertex="1" parent="7c4dE1HReEAFrCPjgV6M-56">
          <mxGeometry x="45" y="90" width="10" height="490" as="geometry" />
        </mxCell>
        <mxCell id="7c4dE1HReEAFrCPjgV6M-57" value="Servidor Express (app.js)&lt;span style=&quot;color: rgba(0, 0, 0, 0); font-family: monospace; font-size: 0px; text-align: start; text-wrap-mode: nowrap;&quot;&gt;%3CmxGraphModel%3E%3Croot%3E%3CmxCell%20id%3D%220%22%2F%3E%3CmxCell%20id%3D%221%22%20parent%3D%220%22%2F%3E%3CmxCell%20id%3D%222%22%20value%3D%22Script%20de%20GUI%22%20style%3D%22shape%3DumlLifeline%3Bperimeter%3DlifelinePerimeter%3BwhiteSpace%3Dwrap%3Bhtml%3D1%3Bcontainer%3D1%3BdropTarget%3D0%3Bcollapsible%3D0%3BrecursiveResize%3D0%3BoutlineConnect%3D0%3BportConstraint%3Deastwest%3BnewEdgeStyle%3D%7B%26quot%3Bcurved%26quot%3B%3A0%2C%26quot%3Brounded%26quot%3B%3A0%7D%3B%22%20vertex%3D%221%22%20parent%3D%221%22%3E%3CmxGeometry%20x%3D%22310%22%20y%3D%22160%22%20width%3D%22100%22%20height%3D%22300%22%20as%3D%22geometry%22%2F%3E%3C%2FmxCell%3E%3C%2Froot%3E%3C%2FmxGraphModel%3E&lt;/span&gt;" style="shape=umlLifeline;perimeter=lifelinePerimeter;whiteSpace=wrap;html=1;container=1;dropTarget=0;collapsible=0;recursiveResize=0;outlineConnect=0;portConstraint=eastwest;newEdgeStyle={&quot;curved&quot;:0,&quot;rounded&quot;:0};" vertex="1" parent="1">
          <mxGeometry x="460" y="2160" width="100" height="590" as="geometry" />
        </mxCell>
        <mxCell id="7c4dE1HReEAFrCPjgV6M-103" value="" style="html=1;points=[[0,0,0,0,5],[0,1,0,0,-5],[1,0,0,0,5],[1,1,0,0,-5]];perimeter=orthogonalPerimeter;outlineConnect=0;targetShapes=umlLifeline;portConstraint=eastwest;newEdgeStyle={&quot;curved&quot;:0,&quot;rounded&quot;:0};" vertex="1" parent="7c4dE1HReEAFrCPjgV6M-57">
          <mxGeometry x="45" y="160" width="10" height="360" as="geometry" />
        </mxCell>
        <mxCell id="7c4dE1HReEAFrCPjgV6M-58" value="Router" style="shape=umlLifeline;perimeter=lifelinePerimeter;whiteSpace=wrap;html=1;container=1;dropTarget=0;collapsible=0;recursiveResize=0;outlineConnect=0;portConstraint=eastwest;newEdgeStyle={&quot;curved&quot;:0,&quot;rounded&quot;:0};" vertex="1" parent="1">
          <mxGeometry x="590" y="2160" width="100" height="600" as="geometry" />
        </mxCell>
        <mxCell id="7c4dE1HReEAFrCPjgV6M-104" value="" style="html=1;points=[[0,0,0,0,5],[0,1,0,0,-5],[1,0,0,0,5],[1,1,0,0,-5]];perimeter=orthogonalPerimeter;outlineConnect=0;targetShapes=umlLifeline;portConstraint=eastwest;newEdgeStyle={&quot;curved&quot;:0,&quot;rounded&quot;:0};" vertex="1" parent="7c4dE1HReEAFrCPjgV6M-58">
          <mxGeometry x="45" y="170" width="10" height="330" as="geometry" />
        </mxCell>
        <mxCell id="7c4dE1HReEAFrCPjgV6M-59" value="Controlador" style="shape=umlLifeline;perimeter=lifelinePerimeter;whiteSpace=wrap;html=1;container=1;dropTarget=0;collapsible=0;recursiveResize=0;outlineConnect=0;portConstraint=eastwest;newEdgeStyle={&quot;curved&quot;:0,&quot;rounded&quot;:0};" vertex="1" parent="1">
          <mxGeometry x="720" y="2160" width="100" height="600" as="geometry" />
        </mxCell>
        <mxCell id="7c4dE1HReEAFrCPjgV6M-105" value="" style="html=1;points=[[0,0,0,0,5],[0,1,0,0,-5],[1,0,0,0,5],[1,1,0,0,-5]];perimeter=orthogonalPerimeter;outlineConnect=0;targetShapes=umlLifeline;portConstraint=eastwest;newEdgeStyle={&quot;curved&quot;:0,&quot;rounded&quot;:0};" vertex="1" parent="7c4dE1HReEAFrCPjgV6M-59">
          <mxGeometry x="45" y="190" width="10" height="270" as="geometry" />
        </mxCell>
        <mxCell id="7c4dE1HReEAFrCPjgV6M-60" value="Servicio" style="shape=umlLifeline;perimeter=lifelinePerimeter;whiteSpace=wrap;html=1;container=1;dropTarget=0;collapsible=0;recursiveResize=0;outlineConnect=0;portConstraint=eastwest;newEdgeStyle={&quot;curved&quot;:0,&quot;rounded&quot;:0};" vertex="1" parent="1">
          <mxGeometry x="847" y="2160" width="100" height="600" as="geometry" />
        </mxCell>
        <mxCell id="7c4dE1HReEAFrCPjgV6M-106" value="" style="html=1;points=[[0,0,0,0,5],[0,1,0,0,-5],[1,0,0,0,5],[1,1,0,0,-5]];perimeter=orthogonalPerimeter;outlineConnect=0;targetShapes=umlLifeline;portConstraint=eastwest;newEdgeStyle={&quot;curved&quot;:0,&quot;rounded&quot;:0};" vertex="1" parent="7c4dE1HReEAFrCPjgV6M-60">
          <mxGeometry x="45" y="210" width="10" height="200" as="geometry" />
        </mxCell>
        <mxCell id="7c4dE1HReEAFrCPjgV6M-117" value="simularAlertaSiEsNecesario()" style="html=1;verticalAlign=bottom;endArrow=block;curved=0;rounded=0;" edge="1" parent="7c4dE1HReEAFrCPjgV6M-60" source="7c4dE1HReEAFrCPjgV6M-106" target="7c4dE1HReEAFrCPjgV6M-106">
          <mxGeometry width="80" relative="1" as="geometry">
            <mxPoint x="53" y="334.44000000000005" as="sourcePoint" />
            <mxPoint x="50.3387096774195" y="340" as="targetPoint" />
            <Array as="points">
              <mxPoint x="103" y="330" />
              <mxPoint x="103" y="350" />
            </Array>
          </mxGeometry>
        </mxCell>
        <mxCell id="7c4dE1HReEAFrCPjgV6M-63" value="ajustartemp()/ajustarHum()" style="html=1;verticalAlign=bottom;endArrow=block;curved=0;rounded=0;" edge="1" parent="1">
          <mxGeometry x="0.0003" width="80" relative="1" as="geometry">
            <mxPoint x="178" y="2263" as="sourcePoint" />
            <mxPoint x="345.5" y="2263" as="targetPoint" />
            <mxPoint as="offset" />
          </mxGeometry>
        </mxCell>
        <mxCell id="7c4dE1HReEAFrCPjgV6M-64" value="fetch POST /clima/temperatura&lt;br&gt;o /clima/humedad" style="html=1;verticalAlign=bottom;endArrow=block;curved=0;rounded=0;" edge="1" parent="1" source="7c4dE1HReEAFrCPjgV6M-56">
          <mxGeometry x="-0.001" width="80" relative="1" as="geometry">
            <mxPoint x="380" y="2328" as="sourcePoint" />
            <mxPoint x="510" y="2328" as="targetPoint" />
            <mxPoint as="offset" />
          </mxGeometry>
        </mxCell>
        <mxCell id="7c4dE1HReEAFrCPjgV6M-65" value="delega ruta" style="html=1;verticalAlign=bottom;endArrow=block;curved=0;rounded=0;" edge="1" parent="1" source="7c4dE1HReEAFrCPjgV6M-103">
          <mxGeometry width="80" relative="1" as="geometry">
            <mxPoint x="510" y="2350" as="sourcePoint" />
            <mxPoint x="640" y="2350" as="targetPoint" />
          </mxGeometry>
        </mxCell>
        <mxCell id="7c4dE1HReEAFrCPjgV6M-66" value="postTemperatura()/&lt;br&gt;postHumedad()" style="html=1;verticalAlign=bottom;endArrow=block;curved=0;rounded=0;" edge="1" parent="1" source="7c4dE1HReEAFrCPjgV6M-104">
          <mxGeometry x="0.0085" width="80" relative="1" as="geometry">
            <mxPoint x="640" y="2368" as="sourcePoint" />
            <mxPoint x="770" y="2368" as="targetPoint" />
            <mxPoint as="offset" />
          </mxGeometry>
        </mxCell>
        <mxCell id="7c4dE1HReEAFrCPjgV6M-67" value="ajustarTemperatura()/&lt;div&gt;ajustarHumedad()&lt;/div&gt;" style="html=1;verticalAlign=bottom;endArrow=block;curved=0;rounded=0;" edge="1" parent="1">
          <mxGeometry x="0.0085" width="80" relative="1" as="geometry">
            <mxPoint x="770" y="2387" as="sourcePoint" />
            <mxPoint x="900" y="2387" as="targetPoint" />
            <mxPoint as="offset" />
          </mxGeometry>
        </mxCell>
        <mxCell id="7c4dE1HReEAFrCPjgV6M-72" value="mensaje de alerta" style="html=1;verticalAlign=bottom;endArrow=open;dashed=1;endSize=8;curved=0;rounded=0;" edge="1" parent="1">
          <mxGeometry relative="1" as="geometry">
            <mxPoint x="894" y="2534" as="sourcePoint" />
            <mxPoint x="769.4473684210525" y="2534" as="targetPoint" />
          </mxGeometry>
        </mxCell>
        <mxCell id="7c4dE1HReEAFrCPjgV6M-73" value="respuesta con alerta" style="html=1;verticalAlign=bottom;endArrow=open;dashed=1;endSize=8;curved=0;rounded=0;" edge="1" parent="1">
          <mxGeometry relative="1" as="geometry">
            <mxPoint x="764.5526315789475" y="2590" as="sourcePoint" />
            <mxPoint x="640" y="2590" as="targetPoint" />
          </mxGeometry>
        </mxCell>
        <mxCell id="7c4dE1HReEAFrCPjgV6M-74" value="respuesta con alerta" style="html=1;verticalAlign=bottom;endArrow=open;dashed=1;endSize=8;curved=0;rounded=0;" edge="1" parent="1" target="7c4dE1HReEAFrCPjgV6M-103">
          <mxGeometry x="-0.0009" relative="1" as="geometry">
            <mxPoint x="634.5526315789475" y="2630" as="sourcePoint" />
            <mxPoint x="510" y="2630" as="targetPoint" />
            <mxPoint as="offset" />
          </mxGeometry>
        </mxCell>
        <mxCell id="7c4dE1HReEAFrCPjgV6M-75" value="JSON respuesta con alerta" style="html=1;verticalAlign=bottom;endArrow=open;dashed=1;endSize=8;curved=0;rounded=0;" edge="1" parent="1">
          <mxGeometry relative="1" as="geometry">
            <mxPoint x="505" y="2662" as="sourcePoint" />
            <mxPoint x="346.09183673469374" y="2662" as="targetPoint" />
          </mxGeometry>
        </mxCell>
        <mxCell id="7c4dE1HReEAFrCPjgV6M-76" value="Muestra alerta visual" style="html=1;verticalAlign=bottom;endArrow=open;dashed=1;endSize=8;curved=0;rounded=0;" edge="1" parent="1" target="7c4dE1HReEAFrCPjgV6M-98">
          <mxGeometry x="-0.0096" relative="1" as="geometry">
            <mxPoint x="339.5526315789475" y="2710" as="sourcePoint" />
            <mxPoint x="170" y="2710" as="targetPoint" />
            <mxPoint as="offset" />
          </mxGeometry>
        </mxCell>
        <mxCell id="7c4dE1HReEAFrCPjgV6M-83" value="" style="html=1;verticalAlign=bottom;endArrow=block;curved=0;rounded=0;" edge="1" parent="1" target="7c4dE1HReEAFrCPjgV6M-82">
          <mxGeometry x="0.0085" width="80" relative="1" as="geometry">
            <mxPoint x="620" y="350" as="sourcePoint" />
            <mxPoint x="750" y="350" as="targetPoint" />
            <mxPoint as="offset" />
          </mxGeometry>
        </mxCell>
        <mxCell id="7c4dE1HReEAFrCPjgV6M-82" value="" style="html=1;points=[[0,0,0,0,5],[0,1,0,0,-5],[1,0,0,0,5],[1,1,0,0,-5]];perimeter=orthogonalPerimeter;outlineConnect=0;targetShapes=umlLifeline;portConstraint=eastwest;newEdgeStyle={&quot;curved&quot;:0,&quot;rounded&quot;:0};" vertex="1" parent="1">
          <mxGeometry x="615" y="290" width="10" height="310" as="geometry" />
        </mxCell>
        <mxCell id="7c4dE1HReEAFrCPjgV6M-110" value="&lt;b&gt;&lt;font style=&quot;font-size: 24px;&quot;&gt;Ajustar Clima&lt;/font&gt;&lt;/b&gt;" style="text;html=1;align=center;verticalAlign=middle;resizable=0;points=[];autosize=1;strokeColor=none;fillColor=none;" vertex="1" parent="1">
          <mxGeometry x="489" y="1000" width="180" height="40" as="geometry" />
        </mxCell>
        <mxCell id="7c4dE1HReEAFrCPjgV6M-111" value="&lt;b&gt;&lt;font style=&quot;font-size: 24px;&quot;&gt;Consultar Valores Actuales&lt;/font&gt;&lt;/b&gt;" style="text;html=1;align=center;verticalAlign=middle;resizable=0;points=[];autosize=1;strokeColor=none;fillColor=none;" vertex="1" parent="1">
          <mxGeometry x="430" y="60" width="330" height="40" as="geometry" />
        </mxCell>
        <mxCell id="7c4dE1HReEAFrCPjgV6M-112" value="&lt;b&gt;&lt;font style=&quot;font-size: 24px;&quot;&gt;Recibir alerta por condicion critica&lt;/font&gt;&lt;/b&gt;" style="text;html=1;align=center;verticalAlign=middle;resizable=0;points=[];autosize=1;strokeColor=none;fillColor=none;" vertex="1" parent="1">
          <mxGeometry x="410" y="2030" width="420" height="40" as="geometry" />
        </mxCell>
        <mxCell id="7c4dE1HReEAFrCPjgV6M-113" value="usuario" style="shape=umlLifeline;perimeter=lifelinePerimeter;whiteSpace=wrap;html=1;container=1;dropTarget=0;collapsible=0;recursiveResize=0;outlineConnect=0;portConstraint=eastwest;newEdgeStyle={&quot;curved&quot;:0,&quot;rounded&quot;:0};participant=umlActor;size=30;" vertex="1" parent="1">
          <mxGeometry y="2160" width="20" height="580" as="geometry" />
        </mxCell>
        <mxCell id="7c4dE1HReEAFrCPjgV6M-114" value="ajusta valor fuera de rango" style="html=1;verticalAlign=bottom;endArrow=block;curved=0;rounded=0;" edge="1" parent="1" source="7c4dE1HReEAFrCPjgV6M-113">
          <mxGeometry x="0.0003" width="80" relative="1" as="geometry">
            <mxPoint x="50" y="2240" as="sourcePoint" />
            <mxPoint x="170" y="2240" as="targetPoint" />
            <mxPoint as="offset" />
          </mxGeometry>
        </mxCell>
        <mxCell id="7c4dE1HReEAFrCPjgV6M-116" value="registrar" style="html=1;verticalAlign=bottom;endArrow=block;curved=0;rounded=0;" edge="1" parent="1" target="7c4dE1HReEAFrCPjgV6M-106">
          <mxGeometry width="80" relative="1" as="geometry">
            <mxPoint x="902" y="2420" as="sourcePoint" />
            <mxPoint x="902" y="2480" as="targetPoint" />
            <Array as="points">
              <mxPoint x="970" y="2420" />
              <mxPoint x="970" y="2460" />
            </Array>
          </mxGeometry>
        </mxCell>
      </root>
    </mxGraphModel>
  </diagram>
</mxfile>
